<svg width="34" height="34" viewBox="0 0 34 34" fill="none" xmlns="http://www.w3.org/2000/svg">
<path d="M19.9999 12.5584V17.15H24.1166C24.4333 17.15 24.5916 17.4667 24.5916 17.7834L23.9583 20.7917C23.9583 20.95 23.6416 21.1084 23.4833 21.1084H19.9999V32.6667H15.2499V21.2667H12.5583C12.2416 21.2667 12.0833 21.1084 12.0833 20.7917V17.7834C12.0833 17.4667 12.2416 17.3084 12.5583 17.3084H15.2499V12.0834C15.2499 9.39171 17.3083 7.33337 19.9999 7.33337H24.2749C24.5916 7.33337 24.7499 7.49171 24.7499 7.80837V11.6084C24.7499 11.925 24.5916 12.0834 24.2749 12.0834H20.4749C20.1583 12.0834 19.9999 12.2417 19.9999 12.5584Z" stroke="black" stroke-width="2" stroke-miterlimit="10" stroke-linecap="round"/>
<path d="M21.5833 32.6667H12.0833C4.16667 32.6667 1 29.5 1 21.5833V12.0833C1 4.16667 4.16667 1 12.0833 1H21.5833C29.5 1 32.6667 4.16667 32.6667 12.0833V21.5833C32.6667 29.5 29.5 32.6667 21.5833 32.6667Z" stroke="black" stroke-width="2" stroke-linecap="round" stroke-linejoin="round"/>
</svg>
