<svg width="32" height="32" viewBox="0 0 32 32" fill="none" xmlns="http://www.w3.org/2000/svg">
<path d="M11.5 31H20.5C28 31 31 28 31 20.5V11.5C31 4 28 1 20.5 1H11.5C4 1 1 4 1 11.5V20.5C1 28 4 31 11.5 31Z" stroke="black" stroke-width="2" stroke-linecap="round" stroke-linejoin="round"/>
<path d="M16 21.25C16.6894 21.25 17.3721 21.1142 18.0091 20.8504C18.646 20.5865 19.2248 20.1998 19.7123 19.7123C20.1998 19.2248 20.5865 18.646 20.8504 18.0091C21.1142 17.3721 21.25 16.6894 21.25 16C21.25 15.3106 21.1142 14.6279 20.8504 13.9909C20.5865 13.354 20.1998 12.7752 19.7123 12.2877C19.2248 11.8002 18.646 11.4135 18.0091 11.1496C17.3721 10.8858 16.6894 10.75 16 10.75C14.6076 10.75 13.2723 11.3031 12.2877 12.2877C11.3031 13.2723 10.75 14.6076 10.75 16C10.75 17.3924 11.3031 18.7277 12.2877 19.7123C13.2723 20.6969 14.6076 21.25 16 21.25Z" stroke="black" stroke-width="2" stroke-linecap="round" stroke-linejoin="round"/>
<path d="M24.4541 8.5H24.4721" stroke="black" stroke-width="2" stroke-linecap="round" stroke-linejoin="round"/>
</svg>
