<svg width="22" height="22" viewBox="0 0 22 22" fill="none" xmlns="http://www.w3.org/2000/svg">
<path d="M6.07264 16.4825L8.37264 18.7825M18.9726 13.9225C17.9961 14.8966 16.7722 15.5855 15.4329 15.9151C14.0935 16.2446 12.6896 16.2023 11.3726 15.7925L6.66264 20.4925C6.32264 20.8425 5.65264 21.0525 5.17264 20.9825L2.99264 20.6825C2.27264 20.5825 1.60264 19.9025 1.49264 19.1825L1.19264 17.0025C1.12264 16.5225 1.35264 15.8525 1.68264 15.5125L6.38264 10.8125C5.58264 8.2125 6.20264 5.2625 8.26264 3.2125C11.2126 0.2625 16.0026 0.2625 18.9626 3.2125C21.9226 6.1625 21.9226 10.9725 18.9726 13.9225Z" stroke="#0A2647" stroke-opacity="0.25" stroke-width="1.5" stroke-miterlimit="10" stroke-linecap="round" stroke-linejoin="round"/>
</svg>
